<?xml version="1.0" standalone="no"?>
<!DOCTYPE svg PUBLIC "-//W3C//DTD SVG 1.1//EN" "http://www.w3.org/Graphics/SVG/1.1/DTD/svg11.dtd" >
<svg xmlns="http://www.w3.org/2000/svg">
<metadata>Generated by IcoMoon</metadata>
<defs>
<font id="icomoon" horiz-adv-x="1024">
<font-face units-per-em="1024" ascent="960" descent="-64" />
<missing-glyph horiz-adv-x="1024" />
<glyph unicode="&#x20;" horiz-adv-x="512" d="" />
<glyph unicode="&#xe901;" d="M870.4 960h-716.8c-84.831 0-153.6-68.769-153.6-153.6v0-512c0-84.831 68.769-153.6 153.6-153.6v0h593.216l189.824-189.824c9.261-9.239 22.043-14.952 36.16-14.952 28.269 0 51.187 22.91 51.2 51.175v819.201c0 84.831-68.769 153.6-153.6 153.6v0zM307.2 499.2c-28.277 0-51.2 22.923-51.2 51.2s22.923 51.2 51.2 51.2c28.277 0 51.2-22.923 51.2-51.2v0c0-28.277-22.923-51.2-51.2-51.2v0zM512 499.2c-28.277 0-51.2 22.923-51.2 51.2s22.923 51.2 51.2 51.2c28.277 0 51.2-22.923 51.2-51.2v0c0-28.277-22.923-51.2-51.2-51.2v0zM716.8 499.2c-28.277 0-51.2 22.923-51.2 51.2s22.923 51.2 51.2 51.2c28.277 0 51.2-22.923 51.2-51.2v0c0-28.277-22.923-51.2-51.2-51.2v0z" />
<glyph unicode="&#xe902;" d="M358.4 550.4c0-28.277-22.923-51.2-51.2-51.2s-51.2 22.923-51.2 51.2c0 28.277 22.923 51.2 51.2 51.2s51.2-22.923 51.2-51.2z" />
<glyph unicode="&#xe903;" d="M563.2 550.4c0-28.277-22.923-51.2-51.2-51.2s-51.2 22.923-51.2 51.2c0 28.277 22.923 51.2 51.2 51.2s51.2-22.923 51.2-51.2z" />
<glyph unicode="&#xe904;" d="M768 550.4c0-28.277-22.923-51.2-51.2-51.2s-51.2 22.923-51.2 51.2c0 28.277 22.923 51.2 51.2 51.2s51.2-22.923 51.2-51.2z" />
<glyph unicode="&#xe905;" horiz-adv-x="836" d="M12.605 65.072v882.323h461.152l219.495-219.495v-662.828z" />
<glyph unicode="&#xe906;" horiz-adv-x="836" d="M468.554 934.79l212.092-212.114v-644.999h-655.437v857.113h443.345zM478.97 960h-478.97v-907.532h705.856v680.647l-226.886 226.886z" />
<glyph unicode="&#xe907;" horiz-adv-x="836" d="M466.365 720.509v226.886h7.391l219.495-219.495v-7.391z" />
<glyph unicode="&#xe908;" horiz-adv-x="836" d="M479.025 924.352l191.183-191.238h-191.183v191.238zM479.025 960h-25.298v-252.095h252.095v25.21z" />
<glyph unicode="&#xe909;" horiz-adv-x="836" d="M626.939-58.501c-112.379 0-203.48 91.101-203.48 203.48s91.101 203.48 203.48 203.48c112.379 0 203.48-91.101 203.48-203.48v0c-0.138-112.324-91.157-203.343-203.467-203.48h-0.013z" />
<glyph unicode="&#xe90a;" horiz-adv-x="836" d="M626.939 342.96c109.342 0 197.981-88.639 197.981-197.981s-88.639-197.981-197.981-197.981c-109.342 0-197.981 88.639-197.981 197.981v0c0.33 109.209 88.772 197.65 197.949 197.981h0.031zM626.939 353.959c-115.416 0-208.98-93.563-208.98-208.98s93.563-208.98 208.98-208.98c115.416 0 208.98 93.563 208.98 208.98v0c0 0.026 0 0.057 0 0.088 0 115.368-93.524 208.892-208.892 208.892-0.031 0-0.062 0-0.093 0h0.005z" />
<glyph unicode="&#xe90b;" horiz-adv-x="836" d="M609.56 289.066c-0.001 0-0.003 0-0.004 0-3.079 0-5.634-2.239-6.128-5.177l-0.005-0.036-6.049-37.022c-7.943-2.331-14.821-5.231-21.281-8.796l0.537 0.272-30.544 21.822c-1.003 0.725-2.258 1.159-3.614 1.159-1.715 0-3.269-0.695-4.393-1.819l-24.198-24.198c-1.125-1.125-1.82-2.678-1.82-4.394 0-1.337 0.422-2.575 1.14-3.588l-0.013 0.019 21.492-30.797c-3.354-5.968-6.312-12.895-8.507-20.153l-0.194-0.745-36.868-6.137c-2.926-0.507-5.13-3.002-5.18-6.022v-34.201c0-0.006 0-0.012 0-0.019 0-3.047 2.193-5.582 5.087-6.112l0.038-0.006 36.89-6.533c2.371-8.001 5.318-14.929 8.939-21.43l-0.272 0.532-21.734-30.423c-0.725-1.003-1.159-2.258-1.159-3.614 0-1.715 0.695-3.269 1.819-4.393l24.198-24.198c1.125-1.126 2.679-1.822 4.396-1.822 1.331 0 2.565 0.419 3.576 1.131l-0.020-0.013 30.797 21.569c5.938-3.314 12.834-6.236 20.057-8.399l0.742-0.191 6.159-37.077c0.504-2.969 3.057-5.202 6.131-5.202 0.002 0 0.004 0 0.006 0h34.195c0.005 0 0.011 0 0.017 0 3.051 0 5.589 2.199 6.114 5.099l0.006 0.038 6.599 37.22c7.93 2.392 14.789 5.341 21.228 8.95l-0.528-0.272 31.017-21.756c0.994-0.705 2.232-1.127 3.569-1.127 1.716 0 3.27 0.696 4.394 1.82l24.198 24.198c1.126 1.125 1.822 2.679 1.822 4.396 0 1.364-0.44 2.626-1.185 3.651l0.012-0.018-22.108 30.698c3.275 5.874 6.166 12.696 8.312 19.841l0.19 0.738 37.396 6.599c2.905 0.559 5.071 3.081 5.071 6.108 0 0.003 0 0.005 0 0.008v0 34.196c0 0.001 0 0.003 0 0.004 0 3.079-2.239 5.634-5.177 6.128l-0.036 0.005-37.396 6.104c-2.352 7.878-5.25 14.692-8.798 21.095l0.273-0.538 21.877 31.072c0.705 0.994 1.127 2.232 1.127 3.569 0 1.716-0.696 3.27-1.82 4.394l-24.198 24.198c-1.125 1.126-2.679 1.822-4.396 1.822-1.364 0-2.626-0.44-3.651-1.185l0.018 0.012-30.61-21.998c-5.921 3.33-12.794 6.265-19.995 8.442l-0.738 0.192-6.511 37.209c-0.545 2.921-3.075 5.104-6.114 5.104 0 0-0.001 0-0.001 0v0zM614.818 276.626h23.681l6.192-35.351c0.433-2.439 2.239-4.363 4.576-4.962l0.043-0.009c9.64-2.441 18.111-6.072 25.83-10.81l-0.4 0.229c0.919-0.567 2.034-0.903 3.227-0.903 1.361 0 2.62 0.438 3.644 1.18l-0.018-0.012 29.092 20.898 16.74-16.74-20.722-29.521c-0.707-0.995-1.13-2.235-1.13-3.574 0-1.183 0.33-2.288 0.904-3.229l-0.016 0.027c4.451-7.281 8.047-15.707 10.342-24.654l0.14-0.643c0.612-2.399 2.562-4.216 4.99-4.625l0.037-0.005 35.483-5.807v-23.681l-35.56-6.236c-2.435-0.444-4.352-2.258-4.94-4.599l-0.009-0.043c-2.415-9.588-6.004-18.016-10.69-25.703l0.23 0.406c-0.562-0.916-0.895-2.025-0.895-3.212 0-1.363 0.439-2.623 1.182-3.647l-0.012 0.018 21.008-29.158-16.74-16.762-29.477 20.678c-0.994 0.704-2.231 1.126-3.567 1.126-1.194 0-2.31-0.337-3.257-0.921l0.027 0.015c-7.299-4.509-15.745-8.152-24.72-10.483l-0.643-0.142c-2.363-0.611-4.156-2.519-4.592-4.9l-0.006-0.038-6.28-35.362h-23.692l-5.851 35.197c-0.42 2.463-2.241 4.408-4.599 5.006l-0.043 0.009c-9.675 2.427-18.181 6.044-25.937 10.768l0.409-0.231c-0.912 0.556-2.016 0.885-3.196 0.885-1.336 0-2.574-0.422-3.588-1.14l0.019 0.013-29.224-20.436-16.751 16.773 20.667 28.894c0.724 1.003 1.158 2.257 1.158 3.612 0 1.194-0.337 2.309-0.92 3.256l0.015-0.027c-4.536 7.362-8.186 15.886-10.498 24.944l-0.138 0.64c-0.604 2.372-2.513 4.175-4.9 4.614l-0.038 0.006-35.010 6.214v23.714l34.988 5.818c2.46 0.418 4.405 2.234 5.006 4.588l0.009 0.043c2.459 9.703 6.108 18.229 10.867 26.001l-0.231-0.406c0.566 0.919 0.902 2.033 0.902 3.225 0 1.334-0.42 2.569-1.135 3.581l0.013-0.020-20.436 29.191 16.773 16.751 28.982-20.722c1.002-0.721 2.253-1.153 3.606-1.153 1.183 0 2.289 0.331 3.23 0.904l-0.027-0.016c7.345 4.48 15.849 8.080 24.882 10.347l0.636 0.135c2.411 0.606 4.239 2.563 4.648 5.001l0.005 0.036zM626.917 195.806c-27.46-0.013-49.715-22.276-49.715-49.737 0-27.469 22.268-49.737 49.737-49.737s49.737 22.268 49.737 49.737c0 0.004 0 0.008 0 0.012v-0.001c-0.063 27.449-22.307 49.682-49.755 49.726h-0.004zM626.917 183.366c0.007 0 0.014 0 0.022 0 20.605 0 37.308-16.704 37.308-37.308s-16.704-37.308-37.308-37.308c-20.605 0-37.308 16.704-37.308 37.308 0 0.008 0 0.015 0 0.023v-0.001c0 0.023 0 0.050 0 0.077 0 20.55 16.659 37.209 37.209 37.209 0.027 0 0.054 0 0.081 0h-0.004z" />
<glyph unicode="&#xe90c;" horiz-adv-x="836" d="M351.966 696.026c-121.458-0.081-219.897-98.52-219.979-219.971v-0.008c0-6.075 4.924-10.999 10.999-10.999s10.999 4.924 10.999 10.999v0c0 0.018 0 0.038 0 0.059 0 109.305 88.609 197.915 197.915 197.915 68.326 0 128.566-34.624 164.131-87.283l0.446-0.701h-76.52c-6.075 0-10.999-4.924-10.999-10.999s4.924-10.999 10.999-10.999v0h109.989v109.989c0 6.075-4.924 10.999-10.999 10.999s-10.999-4.924-10.999-10.999v0-66.126c-40.496 53.742-104.2 88.123-175.933 88.123-0.018 0-0.035 0-0.053 0h0.003zM560.769 487.222c-5.999-0.098-10.824-4.984-10.824-10.998 0-0.062 0.001-0.125 0.002-0.187v0.009c0-0.018 0-0.038 0-0.059 0-109.305-88.609-197.915-197.915-197.915-68.326 0-128.566 34.624-164.131 87.283l-0.446 0.701h76.52c0.057-0.001 0.125-0.002 0.193-0.002 4.015 0 7.527 2.151 9.447 5.363l0.028 0.050c0.959 1.599 1.526 3.528 1.526 5.589 0 6.075-4.924 10.999-10.999 10.999-0.069 0-0.137-0.001-0.205-0.002h-94.086c-0.64 0.123-1.376 0.193-2.128 0.193s-1.488-0.070-2.202-0.205l0.073 0.012h-11.637v-109.989c0-6.075 4.924-10.999 10.999-10.999s10.999 4.924 10.999 10.999v0 66.17c40.536-53.77 104.286-88.168 176.071-88.168 121.442 0 219.891 98.448 219.891 219.891 0 0.031 0 0.062 0 0.094v-0.005c0.001 0.053 0.001 0.115 0.001 0.177 0 6.075-4.924 10.999-10.999 10.999-0.062 0-0.125-0.001-0.187-0.002h0.009z" />
<glyph unicode="&#xe90d;" glyph-name="icon_link" d="M263.954 587.949c49.574 49.679 118.116 80.413 193.836 80.413 94.783 0 178.318-48.157 227.473-121.338l0.622-0.983-95.81-95.81c-22.843 51.436-73.476 86.658-132.336 86.658-11.083 0-21.875-1.249-32.242-3.614l0.969 0.186c-27.46-6.251-51.14-19.729-69.698-38.322l-183.577-183.724c-25.877-25.877-41.882-61.626-41.882-101.113 0-78.974 64.021-142.995 142.995-142.995 39.487 0 75.236 16.005 101.113 41.882l56.609 56.609c39.66-16.14 85.673-25.506 133.872-25.506 9.513 0 18.94 0.365 28.269 1.081l-1.239-0.076-124.919-124.773c-48.681-44.849-113.948-72.347-185.638-72.347-151.513 0-274.339 122.826-274.339 274.339 0 71.69 27.498 136.957 72.522 185.829l-0.174-0.192 183.575 183.795zM555.773 879.549l-125.138-124.846c8.087 0.639 17.511 1.004 27.019 1.004 48.204 0 94.22-9.366 136.328-26.377l-2.444 0.872 56.609 56.609c25.877 25.877 61.626 41.882 101.113 41.882 78.974 0 142.995-64.021 142.995-142.995 0-39.487-16.005-75.236-41.882-101.113v0l-183.356-183.722c-25.908-25.809-61.647-41.766-101.113-41.766s-75.205 15.957-101.117 41.77l0.004-0.004c-12.625 12.631-23.042 27.471-30.62 43.89l-0.391 0.944-95.81-95.81c10.305-15.747 21.486-29.461 33.935-41.907v0c49.596-49.613 118.122-80.301 193.815-80.301s144.219 30.688 193.814 80.3l183.869 183.942c54.61 50.307 88.702 122.168 88.702 201.992 0 151.513-122.826 274.339-274.339 274.339-79.824 0-151.685-34.092-201.817-88.51l-0.174-0.192z" />
<glyph unicode="&#xe90e;" glyph-name="icon_modules-menu" horiz-adv-x="1032" d="M0 960h266.062v-278.189h-266.062v278.189zM382.994 960h266.062v-278.189h-266.062v278.189zM761.963 960h266.062v-278.189h-266.062v278.189zM2.012 587.069h266.062v-278.189h-266.062v278.189zM385.006 587.069h266.062v-278.189h-266.062v278.189zM763.975 587.069h266.062v-278.189h-266.062v278.189zM4.025 214.189h266.062v-278.189h-266.062v278.189zM387.019 214.189h266.062v-278.189h-266.062v278.189zM765.988 214.189h266.062v-278.189h-266.062v278.189z" />
<glyph unicode="&#xe90f;" horiz-adv-x="837" d="M12.618 64.11v883.272h461.648l219.731-219.731v-663.541z" />
<glyph unicode="&#xe910;" horiz-adv-x="837" d="M469.058 934.763l212.32-212.342v-645.693h-656.142v858.035h443.821zM479.485 960h-479.485v-908.508h706.615v681.378l-227.13 227.13z" />
<glyph unicode="&#xe911;" horiz-adv-x="837" d="M466.867 720.252v227.13h7.399l219.731-219.731v-7.399z" />
<glyph unicode="&#xe912;" horiz-adv-x="837" d="M479.54 924.314l191.389-191.444h-191.389v191.444zM479.54 960h-25.325v-252.366h252.366v25.237l-227.042 227.13zM542.632 581.461h-378.594c-6.965 0-12.612 5.643-12.618 12.607v0.001c0 6.969 5.649 12.618 12.618 12.618h378.539c6.969 0 12.618-5.649 12.618-12.618v0 0c-0.006-6.964-5.653-12.607-12.618-12.607v0zM441.685 505.751h-277.647c-6.969 0-12.618 5.649-12.618 12.618v0 0c0 6.969 5.649 12.618 12.618 12.618h277.603c6.95-0.025 12.574-5.665 12.574-12.618 0 0 0 0 0 0v0c0 0 0 0 0 0 0-6.953-5.624-12.593-12.572-12.618h-0.002zM542.632 430.041h-378.594c-6.969 0-12.618 5.649-12.618 12.618v0c0 6.969 5.649 12.618 12.618 12.618h378.539c6.969 0 12.618-5.649 12.618-12.618v0 0c0-6.969-5.649-12.618-12.618-12.618v0zM441.685 354.332h-277.647c-6.969 0-12.618 5.649-12.618 12.618v0 0c0 6.969 5.649 12.618 12.618 12.618h277.603c6.95-0.025 12.574-5.665 12.574-12.618 0 0 0 0 0 0v0c0 0 0 0 0 0 0-6.953-5.624-12.593-12.572-12.618h-0.002zM542.632 278.622h-378.594c-6.969 0-12.618 5.649-12.618 12.618v0c0 6.969 5.649 12.618 12.618 12.618h378.539c6.969 0 12.618-5.649 12.618-12.618v0 0c0-6.969-5.649-12.618-12.618-12.618v0z" />
<glyph unicode="&#xe913;" horiz-adv-x="837" d="M627.613-59.596c-112.5 0-203.699 91.199-203.699 203.699s91.199 203.699 203.699 203.699c112.5 0 203.699-91.199 203.699-203.699v0c-0.138-112.444-91.255-203.561-203.686-203.699h-0.013z" />
<glyph unicode="&#xe914;" horiz-adv-x="837" d="M627.613 343.398c109.459 0 198.194-88.734 198.194-198.194s-88.734-198.194-198.194-198.194c-109.459 0-198.194 88.734-198.194 198.194v0c0.331 109.326 88.868 197.863 198.162 198.193h0.031zM627.613 354.409c-115.54 0-209.204-93.664-209.204-209.204s93.664-209.204 209.204-209.204c115.54 0 209.204 93.664 209.204 209.204v0c0 0.026 0 0.057 0 0.088 0 115.492-93.625 209.116-209.116 209.116-0.031 0-0.062 0-0.093 0h0.005z" />
<glyph unicode="&#xe915;" horiz-adv-x="837" d="M583.57 244.301v-204.194l68.068 56.727h90.751z" />
<glyph unicode="&#xe917;" glyph-name="icon_validation" d="M512 960c-282.77 0-512-229.23-512-512s229.23-512 512-512c282.77 0 512 229.23 512 512v0c0 282.77-229.23 512-512 512v0zM497.371 710.144c0.023 0 0.050 0 0.077 0 10.559 0 20.371-3.196 28.522-8.674l-0.184 0.116 0.878-0.585c26.593-18.343 59.512-29.299 94.989-29.299 1.32 0 2.636 0.015 3.949 0.045l-0.195-0.004c2.18-0.103 4.736-0.162 7.305-0.162 11.378 0 22.488 1.151 33.219 3.342l-1.064-0.181h1.426c2.741 0.475 5.897 0.747 9.116 0.747 30.576 0 55.431-24.492 56.017-54.927l0.001-0.055v-299.886c0.026-0.791 0.040-1.722 0.040-2.656 0-35.279-20.745-65.712-50.701-79.768l-0.539-0.227-145.445-72.667c-11.944-6.217-26.081-9.863-41.070-9.863s-29.126 3.646-41.573 10.1l0.503-0.237h-0.219l-146.725 77.129h-0.293c-29.465 15.976-49.186 46.583-49.408 81.816v296.26c-0.020 0.555-0.032 1.206-0.032 1.86 0 29.772 24.135 53.906 53.906 53.906 4.994 0 9.829-0.679 14.418-1.95l-0.379 0.089-1.353 0.329c11.498-2.105 24.731-3.309 38.244-3.309 3 0 5.986 0.059 8.958 0.177l-0.427-0.013c37.073 0.004 71.543 11.144 100.248 30.258l-0.664-0.416c7.986 5.432 17.838 8.682 28.447 8.704h0.006zM497.371 673.573c-0.064 0.001-0.14 0.002-0.216 0.002-2.951 0-5.698-0.874-7.996-2.376l0.056 0.034-0.366-0.293-0.366-0.219c-33.681-21.981-74.841-35.179-119.063-35.51l-0.087-0.001c-3.16-0.155-6.863-0.244-10.586-0.244-15.938 0-31.498 1.62-46.524 4.704l1.485-0.255h-0.658l-0.731 0.219c-9.765 3.365-19.749-3.986-19.749-19.127v-296.229c-0.023-0.587-0.037-1.276-0.037-1.968 0-21.235 12.595-39.528 30.721-47.818l0.328-0.134 145.445-76.361c7.096-4.147 15.623-6.596 24.722-6.596s17.626 2.449 24.958 6.723l-0.236-0.127 147.31 73.655c17.47 8.091 29.371 25.473 29.371 45.636 0 1.186-0.041 2.362-0.122 3.527l0.009-0.157v299.886c-1.438 10.564-10.401 18.619-21.246 18.619-0.464 0-0.925-0.015-1.381-0.044l0.062 0.003 1.426 0.293c-12.229-2.771-26.274-4.358-40.689-4.358-2.693 0-5.374 0.055-8.040 0.165l0.382-0.012c-1.401-0.035-3.050-0.055-4.704-0.055-43.438 0-83.672 13.714-116.61 37.049l0.629-0.423 0.768-0.585c-2.231 1.448-4.959 2.309-7.888 2.309-0.133 0-0.265-0.002-0.397-0.005h0.019zM490.569 556.544c1.614 0.38 3.466 0.598 5.37 0.598 7.114 0 13.519-3.041 17.983-7.894l0.016-0.017 2.158-2.158 26.917-53.87c0.366-0.768 0.695-0.841 1.938-0.841h1.207l56.064-7.314h-2.414c0.022 0 0.048 0 0.074 0 5.728 0 11.016-1.881 15.281-5.059l-0.068 0.048c4.292-3.415 7.357-8.209 8.53-13.704l0.028-0.156c0.38-1.614 0.598-3.466 0.598-5.37 0-7.114-3.041-13.519-7.894-17.983l-0.017-0.016-40.229-40.229c0.585 0.585-1.317-2.999-1.792-4.718l10.825-53.504v-1.792c0.038-0.527 0.059-1.141 0.059-1.761 0-8.374-3.936-15.828-10.059-20.614l-0.058-0.043c-4.139-2.752-9.224-4.392-14.692-4.392-4.638 0-9 1.179-12.804 3.255l-51.060 25.53c-2.962 1.463-2.633 1.463-5.559 0l-51.2-25.6 4.791 3.438c-4.4-4.076-10.311-6.577-16.806-6.577-4.587 0-8.883 1.248-12.567 3.422l0.115-0.063c-7.866 4.923-13.019 13.539-13.019 23.359 0 0.016 0 0.033 0 0.049v-0.003 1.792l10.971 54.565c0 1.024 0 1.573 0 2.085l-38.144 38.071c-5.876 4.077-9.674 10.788-9.674 18.386 0 3.050 0.612 5.957 1.72 8.605l-0.055-0.147c3.893 9.274 12.9 15.668 23.4 15.668 0.311 0 0.62-0.006 0.928-0.017l-0.045 0.001-2.341-0.219 55.991 7.497h1.134c-2.889 0 0.987 2.048 3.145 3.365l23.442 46.702c0.713 3.457 2.102 6.506 4.032 9.134l-0.045-0.065c3.398 4.321 8.177 7.42 13.665 8.638l0.159 0.030zM496.421 504.539l-16.933-33.938-2.158-2.085c-7.021-9.857-18.37-16.238-31.215-16.347h2.397l-31.086-4.133 19.639-19.639-4.718 3.438c7.487-4.080 13.12-10.77 15.733-18.821l0.065-0.233c1.086-3.907 1.71-8.394 1.71-13.027 0-0.898-0.023-1.79-0.070-2.676l0.005 0.124v-1.792l-6.839-34.231 31.561 15.799c5.593 2.773 12.18 4.396 19.145 4.396s13.552-1.623 19.402-4.511l-0.257 0.115 31.561-15.799-6.839 34.231v1.792c-0.010 0.348-0.016 0.757-0.016 1.167 0 11.794 4.88 22.449 12.732 30.054l23.307 23.307-31.086 4.133h2.414c-0.023 0-0.050 0-0.077 0-14.966 0-27.956 8.456-34.454 20.852l-0.102 0.214z" />
</font>
</defs>
</svg>
